HIERARCHY
ROOT joint_Root
{
	OFFSET 0.0 0.0 0.0
	CHANNELS 6 Xposition Yposition Zposition Zrotation Xrotation Yrotation 
	JOINT Hips
	{
		OFFSET 4.5925 91.4895 -427.239
		CHANNELS 6 Xposition Yposition Zposition Zrotation Xrotation Yrotation 
		JOINT Spine
		{
			OFFSET 15.7357 0.0 0.0
			CHANNELS 6 Xposition Yposition Zposition Zrotation Xrotation Yrotation 
			JOINT Chest
			{
				OFFSET 8.98455 -0.406207 0.0
				CHANNELS 6 Xposition Yposition Zposition Zrotation Xrotation Yrotation 
				JOINT Neck
				{
					OFFSET 16.3773 0.0 0.0
					CHANNELS 6 Xposition Yposition Zposition Zrotation Xrotation Yrotation 
					JOINT Head
					{
						OFFSET 6.45672 0.0 0.0
						CHANNELS 6 Xposition Yposition Zposition Zrotation Xrotation Yrotation 
						End Site
						{
							OFFSET 0.0 0.0 0.0
						}
					}
				}
				JOINT Shoulder_L
				{
					OFFSET 12.9942 -0.242716 4.98039
					CHANNELS 6 Xposition Yposition Zposition Zrotation Xrotation Yrotation 
					JOINT UpperArm_L
					{
						OFFSET 5.34809 0.0 0.0
						CHANNELS 6 Xposition Yposition Zposition Zrotation Xrotation Yrotation 
						JOINT LowerArm_L
						{
							OFFSET 24.3286 1.87007e-05 0.0
							CHANNELS 6 Xposition Yposition Zposition Zrotation Xrotation Yrotation 
							JOINT Hand_L
							{
								OFFSET 22.2916 0.0 0.0
								CHANNELS 6 Xposition Yposition Zposition Zrotation Xrotation Yrotation 
								End Site
								{
									OFFSET 0.0 0.0 0.0
								}
							}
						}
					}
				}
				JOINT Shoulder_R
				{
					OFFSET 12.9945 -0.242716 -4.98039
					CHANNELS 6 Xposition Yposition Zposition Zrotation Xrotation Yrotation 
					JOINT UpperArm_R
					{
						OFFSET -5.34813 0.0 0.0
						CHANNELS 6 Xposition Yposition Zposition Zrotation Xrotation Yrotation 
						JOINT LowerArm_R
						{
							OFFSET -24.3289 0.000322201 0.0
							CHANNELS 6 Xposition Yposition Zposition Zrotation Xrotation Yrotation 
							JOINT Hand_R
							{
								OFFSET -22.2915 -0.000108084 0.0
								CHANNELS 6 Xposition Yposition Zposition Zrotation Xrotation Yrotation 
								End Site
								{
									OFFSET 0.0 0.0 0.0
								}
							}
						}
					}
				}
			}
		}
		JOINT UpperLeg_L
		{
			OFFSET -2.19248 -6.46944 0.0
			CHANNELS 6 Xposition Yposition Zposition Zrotation Xrotation Yrotation 
			JOINT LowerLeg_L
			{
				OFFSET 39.0811 0.0 -1.23785e-05
				CHANNELS 6 Xposition Yposition Zposition Zrotation Xrotation Yrotation 
				JOINT Foot_L
				{
					OFFSET 40.9854 0.0 -1.26872e-05
					CHANNELS 6 Xposition Yposition Zposition Zrotation Xrotation Yrotation 
					JOINT Toes_L
					{
						OFFSET 11.7543 0.0 0.0
						CHANNELS 6 Xposition Yposition Zposition Zrotation Xrotation Yrotation 
						End Site
						{
							OFFSET 0.0 0.0 0.0
						}
					}
				}
			}
		}
		JOINT UpperLeg_R
		{
			OFFSET -2.19251 6.46944 0.0
			CHANNELS 6 Xposition Yposition Zposition Zrotation Xrotation Yrotation 
			JOINT LowerLeg_R
			{
				OFFSET -39.0811 -0.00228153 -0.0401928
				CHANNELS 6 Xposition Yposition Zposition Zrotation Xrotation Yrotation 
				JOINT Foot_R
				{
					OFFSET -40.9854 0.0 0.0
					CHANNELS 6 Xposition Yposition Zposition Zrotation Xrotation Yrotation 
					JOINT Toes_R
					{
						OFFSET -11.7543 0.0 0.0
						CHANNELS 6 Xposition Yposition Zposition Zrotation Xrotation Yrotation 
						End Site
						{
							OFFSET 0.0 0.0 0.0
						}
					}
				}
			}
		}
	}
}
MOTION
Frames:	4
Frame Time:	0.0333333
0.000000 0.000000 0.000000 0.000000 0.000000 -0.000000 0.237681 91.506100 1.109270 89.763200 -3.920680 3.630160 15.735700 0.000005 -0.000001 98.570300 86.334800 -97.130300 8.984550 -0.406207 -0.000000 -0.528302 0.987954 2.883190 16.377300 -0.000001 -0.000001 9.869940 -1.350260 -11.547400 6.456720 -0.000001 -0.000000 1.932730 -7.282610 -6.045850 12.994200 -0.242716 4.980390 -81.066300 -13.153800 -55.363700 5.348090 -0.000007 -0.000001 -64.416800 -56.861700 -113.154000 24.328600 0.000019 0.000005 8.631290 3.941940 -65.630900 22.291600 -0.000001 0.000005 35.681300 5.273130 0.813233 12.994500 -0.242716 -4.980390 89.206800 2.672510 -73.463800 -5.348130 -0.000001 -0.000004 -67.780500 12.856000 2.483270 -24.328900 0.000322 -0.000009 -3.995520 -10.381000 -21.182200 -22.291500 -0.000108 -0.000004 18.988600 5.372090 -2.050720 -2.192480 -6.469440 -0.000000 -176.795000 -12.157300 -2.926600 39.081100 -0.000007 -0.000012 -0.149178 0.308562 25.802100 40.985400 -0.000006 -0.000013 0.253135 4.424040 -69.215900 11.754300 -0.000000 0.000003 -0.000163 -0.001560 -16.636700 -2.192510 6.469440 -0.000001 174.109000 23.163000 177.947000 -39.081100 -0.002282 -0.040193 -0.036729 0.083023 25.746400 -40.985400 0.000008 0.000006 6.772480 19.244000 -71.038500 -11.754300 -0.000006 -0.000006 -0.001401 -0.020954 -17.425200
0.000000 0.000000 0.000000 0.000000 0.000000 -0.000000 0.528405 91.489700 1.121510 89.728100 -5.894400 3.736440 15.735700 0.000005 -0.000001 102.936000 86.348500 -101.244000 8.984550 -0.406207 -0.000000 -0.668308 1.510060 3.392300 16.377300 -0.000001 -0.000001 9.889760 -1.036560 -11.001200 6.456720 -0.000001 -0.000000 2.356780 -6.637510 -6.245780 12.994200 -0.242716 4.980390 -81.792000 -12.148200 -55.571700 5.348090 -0.000007 -0.000001 -62.409300 -55.566200 -107.546000 24.328600 0.000019 0.000005 5.115580 2.753860 -61.769100 22.291600 -0.000001 0.000005 33.380300 5.240000 1.702280 12.994500 -0.242716 -4.980390 89.231000 2.635900 -73.729400 -5.348130 -0.000001 -0.000004 -67.801100 12.329500 2.178260 -24.328900 0.000322 -0.000009 -4.433610 -10.668200 -22.720700 -22.291500 -0.000108 -0.000004 19.420600 5.374060 -2.112500 -2.192480 -6.469440 -0.000000 -176.862000 -13.572300 -2.549570 39.081100 -0.000007 -0.000012 -0.147612 0.305546 25.785700 40.985400 -0.000006 -0.000013 0.317610 3.855500 -69.413600 11.754300 -0.000000 0.000003 -0.000176 -0.001665 -16.640600 -2.192510 6.469440 -0.000001 173.907000 21.952100 177.700000 -39.081100 -0.002282 -0.040193 -0.073750 0.159617 25.770700 -40.985400 0.000008 0.000006 5.884960 20.264200 -70.556700 -11.754300 -0.000006 -0.000006 -0.001388 -0.020773 -17.417800
0.000000 0.000000 0.000000 0.000000 0.000000 -0.000000 0.788540 91.411000 1.160280 89.831300 -7.297860 4.309910 15.735700 0.000005 -0.000001 101.476000 86.132400 -99.369400 8.984550 -0.406207 -0.000000 -0.207362 1.392150 4.214220 16.377300 -0.000001 -0.000001 9.387390 -1.155500 -9.311670 6.456720 -0.000001 -0.000000 2.535570 -5.929000 -6.167030 12.994200 -0.242716 4.980390 -82.991200 -10.871000 -56.902100 5.348090 -0.000007 -0.000001 -56.706600 -54.462300 -93.788000 24.328600 0.000019 0.000005 3.247610 2.156470 -56.444100 22.291600 -0.000001 0.000005 31.092100 5.183840 3.125990 12.994500 -0.242716 -4.980390 89.114700 3.007590 -73.589800 -5.348130 -0.000001 -0.000004 -66.634200 13.979900 0.181335 -24.328900 0.000322 -0.000009 -4.865740 -11.320500 -23.440200 -22.291500 -0.000108 -0.000004 18.666200 5.373380 -2.090740 -2.192480 -6.469440 -0.000000 -176.877000 -14.789100 -1.894120 39.081100 -0.000007 -0.000012 -0.151199 0.309113 26.065200 40.985400 -0.000006 -0.000013 0.450578 3.695060 -69.734200 11.754300 -0.000000 0.000003 -0.000172 -0.001634 -16.639500 -2.192510 6.469440 -0.000001 173.337000 20.877000 177.901000 -39.081100 -0.002282 -0.040193 -0.136109 0.285041 26.064200 -40.985400 0.000008 0.000006 4.439530 20.994500 -70.040400 -11.754300 -0.000006 -0.000006 -0.001422 -0.021229 -17.436300
0.000000 0.000000 0.000000 0.000000 0.000000 -0.000000 1.053710 91.306000 1.182460 90.013000 -8.410850 4.923770 15.735700 0.000005 -0.000001 96.454300 85.860900 -93.780900 8.984550 -0.406207 -0.000000 0.447645 0.759673 5.340110 16.377300 -0.000001 -0.000001 8.876040 -1.446710 -6.993540 6.456720 -0.000001 -0.000000 2.623980 -4.640200 -6.170520 12.994200 -0.242716 4.980390 -84.406000 -9.490350 -59.290300 5.348090 -0.000007 -0.000001 -47.092400 -53.326800 -73.389000 24.328600 0.000019 0.000005 2.739400 2.367220 -49.191800 22.291600 -0.000001 0.000005 28.579500 5.106260 4.975440 12.994500 -0.242716 -4.980390 88.870500 3.767180 -73.296800 -5.348130 -0.000001 -0.000004 -64.385500 15.386400 -2.448570 -24.328900 0.000322 -0.000009 -4.640570 -10.304700 -24.402600 -22.291500 -0.000108 -0.000004 16.924600 5.361470 -1.722760 -2.192480 -6.469440 -0.000000 -176.942000 -15.964800 -1.316120 39.081100 -0.000007 -0.000012 -0.153303 0.307797 26.476500 40.985400 -0.000006 -0.000013 0.644768 3.705020 -70.091000 11.754300 -0.000000 0.000003 -0.000190 -0.001772 -16.644500 -2.192510 6.469440 -0.000001 172.771000 19.639300 178.031000 -39.081100 -0.002282 -0.040193 -0.188116 0.383073 26.552000 -40.985400 0.000008 0.000006 3.159450 21.286400 -69.692400 -11.754300 -0.000006 -0.000006 -0.001462 -0.021761 -17.458000
